PathFileType	4	(X/Y/Z)	c:/Users/goper/Files/vsCode/490R/osim_files/C05/C05_Slow_01.trc
DataRate	CameraRate	NumFrames	NumMarkers	Units                	OrigDataRate	OrigDataStartFrame	OrigNumFrames
250.00	250.00	4	36	mm	250.0	2402	3843
                Frame#	Time	LPSIS			LASIS			LTH1			LTH2			LTH3			LTH4			LLFE			LMFE			LSH1			LSH2			LSH3			LSH4			LLMAL			LMMAL			LCAL			LMTP5			LTOE			LMTP1			RPSIS			RASIS			RTH1			RTH2			RTH3			RTH4			RLFE			RMFE			RSH1			RSH2			RSH3			RSH4			RLMAL			RMMAL			RCAL			RMTP1			RTOE			RMTP5		
		X1	Y1	Z1	X2	Y2	Z2	X3	Y3	Z3	X4	Y4	Z4	X5	Y5	Z5	X6	Y6	Z6	X7	Y7	Z7	X8	Y8	Z8	X9	Y9	Z9	X10	Y10	Z10	X11	Y11	Z11	X12	Y12	Z12	X13	Y13	Z13	X14	Y14	Z14	X15	Y15	Z15	X16	Y16	Z16	X17	Y17	Z17	X18	Y18	Z18	X19	Y19	Z19	X20	Y20	Z20	X21	Y21	Z21	X22	Y22	Z22	X23	Y23	Z23	X24	Y24	Z24	X25	Y25	Z25	X26	Y26	Z26	X27	Y27	Z27	X28	Y28	Z28	X29	Y29	Z29	X30	Y30	Z30	X31	Y31	Z31	X32	Y32	Z32	X33	Y33	Z33	X34	Y34	Z34	X35	Y35	Z35	X36	Y36	Z36

2402	9.60400	-618.33423	1044.58276	384.37308	-815.80353	1008.42340	450.51797	-673.78961	699.14307	485.74640	-677.99615	636.94623	474.46991	-749.68463	698.74091	479.26788	-743.88055	637.84100	468.80804	-702.16437	530.77332	449.64340	-696.61560	527.13275	332.61197	-577.61804	368.96390	444.19498	-574.42212	325.05350	436.14130	-639.59821	355.79736	455.44617	-626.61182	315.15924	445.55862	-559.95367	99.17502	393.00766	-590.76465	115.71729	311.87027	-501.73077	72.93847	338.28027	-698.04590	39.85706	421.37494	-736.89221	65.62421	361.24948	-724.19257	51.86219	313.14117	-624.60040	1045.87476	276.00723	-817.62555	1016.30499	220.22920	-829.61267	668.49762	164.95248	-866.22028	618.97180	178.37134	-895.11041	705.34412	160.69887	-922.17816	651.11700	172.55836	0.00000	0.00000	0.00000	-947.10028	559.94342	193.61002	-902.60864	395.90845	173.69113	-916.97577	350.11917	176.36467	-962.91309	405.72647	174.68570	-968.67493	359.32242	178.29881	-987.42828	120.10923	205.78758	-1011.36780	133.44861	289.93768	-934.86810	73.66095	257.00299	-1151.19312	95.55798	274.64886	-1160.96741	125.35406	226.03593	-1120.89758	81.57114	166.56274
2403	9.60800	-622.44806	1044.08423	384.10025	-819.83972	1007.96320	450.53564	-676.41150	699.05737	485.81943	-680.39276	636.82007	474.47137	-752.54547	698.22974	479.22385	-746.21649	637.54346	468.70804	-704.06439	530.56439	449.77582	-698.43591	526.95605	332.68625	-578.74329	369.28305	444.19547	-575.38147	325.30768	436.10403	-640.62506	355.80603	455.53888	-627.23041	315.32657	445.88470	-560.14948	99.31607	392.99490	-590.98651	115.85110	311.87027	-501.84302	73.13410	338.27460	-698.09045	39.79466	421.41754	-736.99316	65.41535	361.26877	-724.26611	51.74058	313.12885	-628.84729	1045.26697	275.83173	-821.90527	1015.79285	220.23193	-831.98615	667.32996	165.21848	-868.42200	617.60126	178.48524	-897.60901	703.80359	160.57063	-924.52509	649.44086	172.22731	0.00000	0.00000	0.00000	-949.91510	558.68408	193.52048	-908.53033	394.14435	173.93471	-923.88251	348.72519	176.61897	-968.58423	405.19244	174.97218	-975.28400	358.85388	178.70407	-998.97638	119.96682	206.85847	-1022.38348	134.05751	291.03745	-947.56354	72.36611	258.10361	-1162.78943	99.07968	276.06915	-1172.31885	129.14780	227.30000	-1133.30688	84.42705	167.86426
2404	9.61200	-626.57483	1043.49927	383.75632	-823.89337	1007.57568	450.58270	-679.10925	698.98279	485.91428	-682.83783	636.71722	474.50281	-755.20782	697.83771	479.17261	-748.68256	637.30878	468.61603	-705.78198	530.22540	449.93060	-700.24841	526.80103	332.71622	-579.91833	369.61871	444.14621	-575.96289	325.67111	436.93506	-641.69305	355.85782	455.67166	-628.15955	315.39658	445.95776	-560.34973	99.49110	393.00259	-591.26385	115.99905	311.86307	-501.94098	73.37917	338.31183	-698.12024	39.69849	421.44525	-737.14880	65.23199	361.31696	-724.27875	51.59218	313.18219	-633.14697	1044.60547	275.59055	-826.25336	1015.28925	220.19717	-834.42096	666.12262	165.41629	-870.68842	616.17987	178.44382	-900.20886	702.32635	160.28670	-926.90570	647.77277	171.80638	0.00000	0.00000	0.00000	-952.76581	557.46442	193.45398	-914.51471	392.45477	174.13753	-930.65155	347.27216	176.93843	-975.03601	405.09903	175.05515	-981.57495	358.44464	178.84689	-1010.40295	120.06402	207.98412	-1033.26575	134.74455	292.21576	-959.66956	71.52528	259.04581	-1174.80701	103.24955	277.22571	-1183.54688	133.10941	228.89221	-1145.51636	87.29872	169.24835
2405	9.61600	-630.69269	1042.94897	383.48962	-827.98456	1007.16193	450.56213	-681.83997	698.90930	485.99588	-685.30609	636.65308	474.54889	-757.78278	697.47192	479.12851	-750.99707	636.97485	468.51718	-707.93774	530.21484	449.97263	-702.14801	526.66852	332.76410	-581.09979	369.93118	444.15250	-576.96167	326.10159	436.96899	-642.78961	355.94806	455.84744	-629.41339	315.39276	445.86658	-560.56091	99.68114	392.98648	-591.53790	116.14555	311.86606	-502.07224	73.61821	338.31329	-698.16626	39.65144	421.52286	-737.31616	65.03680	361.36722	-724.32428	51.38090	313.25247	-637.48358	1043.96899	275.38312	-830.70465	1014.71552	220.17154	-836.90674	664.92731	165.60927	-873.00055	614.78400	178.30891	-902.88385	700.78186	160.10043	-929.39600	646.06018	171.37057	0.00000	0.00000	0.00000	-955.79626	556.24512	193.32365	-920.40094	390.82858	174.38039	-937.35571	345.95288	177.25471	-980.14642	404.26593	175.76328	-988.37775	358.01016	179.55838	-1021.39618	120.16653	209.11325	-1043.77271	135.67375	293.44321	-971.66907	70.72078	260.14505	-1186.15186	107.03134	278.65759	-1194.28040	136.93344	230.34833	-1157.72607	90.54824	170.45940
